<mxfile host="Electron" agent="Mozilla/5.0 (X11; Linux x86_64) AppleWebKit/537.36 (KHTML, like Gecko) draw.io/24.7.17 Chrome/128.0.6613.36 Electron/32.0.1 Safari/537.36" version="24.7.17">
  <diagram name="Page-1" id="qFtDS9icAOAcHZn_aSs3">
    <mxGraphModel dx="2070" dy="2443" grid="1" gridSize="10" guides="1" tooltips="1" connect="1" arrows="1" fold="1" page="1" pageScale="1" pageWidth="850" pageHeight="1100" math="0" shadow="0">
      <root>
        <mxCell id="0" />
        <mxCell id="1" parent="0" />
        <mxCell id="ID-2iCCUYJdp1bBLYtlo-1" value="BoxLambda SoC Gateware" style="rounded=1;whiteSpace=wrap;html=1;fontSize=18;fontStyle=1;verticalAlign=bottom;" parent="1" vertex="1">
          <mxGeometry x="120" y="360" width="680" height="200" as="geometry" />
        </mxCell>
        <mxCell id="ID-2iCCUYJdp1bBLYtlo-2" value="&lt;font style=&quot;font-size: 18px;&quot;&gt;&lt;b&gt;VS0&lt;/b&gt;&lt;/font&gt;" style="rounded=1;whiteSpace=wrap;html=1;fillStyle=hatch;fillColor=#000000;" parent="1" vertex="1">
          <mxGeometry x="320" y="400" width="160" height="100" as="geometry" />
        </mxCell>
        <mxCell id="ID-2iCCUYJdp1bBLYtlo-4" value="&lt;font style=&quot;font-size: 18px;&quot;&gt;Other BoxLambda Soc components&lt;/font&gt;" style="rounded=1;whiteSpace=wrap;html=1;fontStyle=1" parent="1" vertex="1">
          <mxGeometry x="500" y="400" width="230" height="60" as="geometry" />
        </mxCell>
        <mxCell id="ID-2iCCUYJdp1bBLYtlo-5" value="&lt;font style=&quot;font-size: 18px;&quot;&gt;Other BoxLambda Soc components&lt;/font&gt;" style="rounded=1;whiteSpace=wrap;html=1;fontStyle=1" parent="1" vertex="1">
          <mxGeometry x="510" y="410" width="230" height="60" as="geometry" />
        </mxCell>
        <mxCell id="ID-2iCCUYJdp1bBLYtlo-6" value="&lt;font style=&quot;font-size: 18px;&quot;&gt;Other BoxLambda Soc components&lt;/font&gt;" style="rounded=1;whiteSpace=wrap;html=1;fontStyle=1" parent="1" vertex="1">
          <mxGeometry x="520" y="420" width="230" height="60" as="geometry" />
        </mxCell>
        <mxCell id="ID-2iCCUYJdp1bBLYtlo-9" value="" style="endArrow=none;html=1;rounded=0;entryX=0.012;entryY=0.944;entryDx=0;entryDy=0;entryPerimeter=0;exitX=0.083;exitY=0.117;exitDx=0;exitDy=0;exitPerimeter=0;dashed=1;" parent="1" source="ID-2iCCUYJdp1bBLYtlo-3" target="ID-2iCCUYJdp1bBLYtlo-8" edge="1">
          <mxGeometry width="50" height="50" relative="1" as="geometry">
            <mxPoint x="130" y="680" as="sourcePoint" />
            <mxPoint x="180" y="630" as="targetPoint" />
          </mxGeometry>
        </mxCell>
        <mxCell id="ID-2iCCUYJdp1bBLYtlo-10" value="" style="endArrow=none;html=1;rounded=0;entryX=0.953;entryY=0.99;entryDx=0;entryDy=0;entryPerimeter=0;exitX=0.25;exitY=0.2;exitDx=0;exitDy=0;exitPerimeter=0;dashed=1;" parent="1" source="ID-2iCCUYJdp1bBLYtlo-1" target="ID-2iCCUYJdp1bBLYtlo-8" edge="1">
          <mxGeometry width="50" height="50" relative="1" as="geometry">
            <mxPoint x="650" y="380" as="sourcePoint" />
            <mxPoint x="700" y="330" as="targetPoint" />
          </mxGeometry>
        </mxCell>
        <mxCell id="ID-2iCCUYJdp1bBLYtlo-3" value="&lt;font style=&quot;font-size: 18px;&quot;&gt;&lt;b&gt;Ibex RiscV CPU&lt;/b&gt;&lt;/font&gt;" style="rounded=1;whiteSpace=wrap;html=1;" parent="1" vertex="1">
          <mxGeometry x="170" y="400" width="120" height="60" as="geometry" />
        </mxCell>
        <mxCell id="ID-2iCCUYJdp1bBLYtlo-8" value="&lt;font style=&quot;font-size: 18px;&quot;&gt;&lt;b&gt;BoxLambda SoC Software&lt;/b&gt;&lt;/font&gt;" style="rounded=1;whiteSpace=wrap;html=1;verticalAlign=bottom;" parent="1" vertex="1">
          <mxGeometry x="120" y="10" width="680" height="310" as="geometry" />
        </mxCell>
        <mxCell id="ID-2iCCUYJdp1bBLYtlo-11" value="&lt;font style=&quot;font-size: 18px;&quot;&gt;&lt;b&gt;DFX Test Program&lt;/b&gt;&lt;/font&gt;" style="rounded=0;whiteSpace=wrap;html=1;verticalAlign=top;" parent="1" vertex="1">
          <mxGeometry x="220" y="30" width="210" height="250" as="geometry" />
        </mxCell>
        <mxCell id="ID-2iCCUYJdp1bBLYtlo-13" value="&lt;font style=&quot;font-size: 18px;&quot;&gt;&lt;b&gt;File System&lt;/b&gt;&lt;/font&gt;" style="rounded=0;whiteSpace=wrap;html=1;verticalAlign=bottom;" parent="1" vertex="1">
          <mxGeometry x="460" y="30" width="240" height="250" as="geometry" />
        </mxCell>
        <mxCell id="ID-2iCCUYJdp1bBLYtlo-12" value="J1B&lt;div style=&quot;font-size: 18px;&quot;&gt;Bitstream&lt;/div&gt;" style="rounded=1;whiteSpace=wrap;html=1;fillStyle=auto;fillColor=#dae8fc;strokeColor=#6c8ebf;fontSize=18;fontStyle=1" parent="1" vertex="1">
          <mxGeometry x="495" y="140" width="160" height="100" as="geometry" />
        </mxCell>
        <mxCell id="ID-2iCCUYJdp1bBLYtlo-14" value="SwapForth Firmware&lt;div&gt;Image&lt;/div&gt;" style="rounded=1;whiteSpace=wrap;html=1;fillColor=#d5e8d4;strokeColor=#82b366;fontSize=18;fontStyle=1" parent="1" vertex="1">
          <mxGeometry x="530" y="50" width="100" height="70" as="geometry" />
        </mxCell>
        <mxCell id="ID-2iCCUYJdp1bBLYtlo-16" value="" style="endArrow=classic;html=1;rounded=0;exitX=0;exitY=0.5;exitDx=0;exitDy=0;entryX=0.563;entryY=0.2;entryDx=0;entryDy=0;entryPerimeter=0;edgeStyle=orthogonalEdgeStyle;curved=1;strokeWidth=5;dashed=1;" parent="1" source="ID-2iCCUYJdp1bBLYtlo-12" target="ID-2iCCUYJdp1bBLYtlo-2" edge="1">
          <mxGeometry x="-0.1141" y="-10" width="50" height="50" relative="1" as="geometry">
            <mxPoint x="140" y="710" as="sourcePoint" />
            <mxPoint x="190" y="660" as="targetPoint" />
            <Array as="points">
              <mxPoint x="370" y="190" />
              <mxPoint x="370" y="380" />
              <mxPoint x="410" y="380" />
            </Array>
            <mxPoint as="offset" />
          </mxGeometry>
        </mxCell>
        <mxCell id="ID-2iCCUYJdp1bBLYtlo-17" value="BoxLambda SoC Gateware" style="rounded=1;whiteSpace=wrap;html=1;fontSize=18;fontStyle=1;verticalAlign=bottom;" parent="1" vertex="1">
          <mxGeometry x="840" y="360" width="680" height="200" as="geometry" />
        </mxCell>
        <mxCell id="ID-2iCCUYJdp1bBLYtlo-18" value="&lt;b&gt;&lt;font style=&quot;font-size: 18px;&quot;&gt;J1B&lt;/font&gt;&lt;/b&gt;" style="rounded=1;whiteSpace=wrap;html=1;fillStyle=auto;fillColor=#dae8fc;strokeColor=#6c8ebf;verticalAlign=bottom;" parent="1" vertex="1">
          <mxGeometry x="1040" y="400" width="160" height="100" as="geometry" />
        </mxCell>
        <mxCell id="ID-2iCCUYJdp1bBLYtlo-19" value="&lt;font style=&quot;font-size: 18px;&quot;&gt;Other BoxLambda Soc components&lt;/font&gt;" style="rounded=1;whiteSpace=wrap;html=1;fontStyle=1" parent="1" vertex="1">
          <mxGeometry x="1220" y="400" width="230" height="60" as="geometry" />
        </mxCell>
        <mxCell id="ID-2iCCUYJdp1bBLYtlo-20" value="&lt;font style=&quot;font-size: 18px;&quot;&gt;Other BoxLambda Soc components&lt;/font&gt;" style="rounded=1;whiteSpace=wrap;html=1;fontStyle=1" parent="1" vertex="1">
          <mxGeometry x="1230" y="410" width="230" height="60" as="geometry" />
        </mxCell>
        <mxCell id="ID-2iCCUYJdp1bBLYtlo-21" value="&lt;font style=&quot;font-size: 18px;&quot;&gt;Other BoxLambda Soc components&lt;/font&gt;" style="rounded=1;whiteSpace=wrap;html=1;fontStyle=1" parent="1" vertex="1">
          <mxGeometry x="1240" y="420" width="230" height="60" as="geometry" />
        </mxCell>
        <mxCell id="ID-2iCCUYJdp1bBLYtlo-22" value="" style="endArrow=none;html=1;rounded=0;entryX=0.012;entryY=0.944;entryDx=0;entryDy=0;entryPerimeter=0;exitX=0.083;exitY=0.117;exitDx=0;exitDy=0;exitPerimeter=0;dashed=1;" parent="1" source="ID-2iCCUYJdp1bBLYtlo-24" target="ID-2iCCUYJdp1bBLYtlo-25" edge="1">
          <mxGeometry width="50" height="50" relative="1" as="geometry">
            <mxPoint x="850" y="680" as="sourcePoint" />
            <mxPoint x="900" y="630" as="targetPoint" />
          </mxGeometry>
        </mxCell>
        <mxCell id="ID-2iCCUYJdp1bBLYtlo-23" value="" style="endArrow=none;html=1;rounded=0;entryX=0.953;entryY=0.99;entryDx=0;entryDy=0;entryPerimeter=0;exitX=0.25;exitY=0.2;exitDx=0;exitDy=0;exitPerimeter=0;dashed=1;" parent="1" source="ID-2iCCUYJdp1bBLYtlo-17" target="ID-2iCCUYJdp1bBLYtlo-25" edge="1">
          <mxGeometry width="50" height="50" relative="1" as="geometry">
            <mxPoint x="1370" y="380" as="sourcePoint" />
            <mxPoint x="1420" y="330" as="targetPoint" />
          </mxGeometry>
        </mxCell>
        <mxCell id="ID-2iCCUYJdp1bBLYtlo-24" value="&lt;font style=&quot;font-size: 18px;&quot;&gt;&lt;b&gt;Ibex RiscV CPU&lt;/b&gt;&lt;/font&gt;" style="rounded=1;whiteSpace=wrap;html=1;" parent="1" vertex="1">
          <mxGeometry x="890" y="400" width="120" height="60" as="geometry" />
        </mxCell>
        <mxCell id="ID-2iCCUYJdp1bBLYtlo-25" value="&lt;font style=&quot;font-size: 18px;&quot;&gt;&lt;b&gt;BoxLambda SoC Software&lt;/b&gt;&lt;/font&gt;" style="rounded=1;whiteSpace=wrap;html=1;verticalAlign=bottom;" parent="1" vertex="1">
          <mxGeometry x="840" y="10" width="680" height="310" as="geometry" />
        </mxCell>
        <mxCell id="ID-2iCCUYJdp1bBLYtlo-26" value="&lt;font style=&quot;font-size: 18px;&quot;&gt;&lt;b&gt;DFX Test Program&lt;/b&gt;&lt;/font&gt;" style="rounded=0;whiteSpace=wrap;html=1;verticalAlign=top;" parent="1" vertex="1">
          <mxGeometry x="940" y="30" width="210" height="250" as="geometry" />
        </mxCell>
        <mxCell id="ID-2iCCUYJdp1bBLYtlo-27" value="&lt;font style=&quot;font-size: 18px;&quot;&gt;&lt;b&gt;File System&lt;/b&gt;&lt;/font&gt;" style="rounded=0;whiteSpace=wrap;html=1;verticalAlign=bottom;" parent="1" vertex="1">
          <mxGeometry x="1180" y="30" width="240" height="250" as="geometry" />
        </mxCell>
        <mxCell id="ID-2iCCUYJdp1bBLYtlo-28" value="J1B&lt;div style=&quot;font-size: 18px;&quot;&gt;Bitstream&lt;/div&gt;" style="rounded=1;whiteSpace=wrap;html=1;fillStyle=auto;fillColor=#dae8fc;strokeColor=#6c8ebf;fontSize=18;fontStyle=1" parent="1" vertex="1">
          <mxGeometry x="1215" y="140" width="160" height="100" as="geometry" />
        </mxCell>
        <mxCell id="ID-2iCCUYJdp1bBLYtlo-29" value="SwapForth Firmware&lt;div&gt;Image&lt;/div&gt;" style="rounded=1;whiteSpace=wrap;html=1;fillColor=#d5e8d4;strokeColor=#82b366;fontSize=18;fontStyle=1" parent="1" vertex="1">
          <mxGeometry x="1250" y="50" width="100" height="70" as="geometry" />
        </mxCell>
        <mxCell id="ID-2iCCUYJdp1bBLYtlo-30" value="" style="endArrow=classic;html=1;rounded=0;exitX=0;exitY=0.5;exitDx=0;exitDy=0;entryX=0.563;entryY=0.2;entryDx=0;entryDy=0;entryPerimeter=0;edgeStyle=orthogonalEdgeStyle;curved=1;strokeWidth=5;dashed=1;" parent="1" source="ID-2iCCUYJdp1bBLYtlo-29" target="ID-2iCCUYJdp1bBLYtlo-18" edge="1">
          <mxGeometry x="0.0652" y="-20" width="50" height="50" relative="1" as="geometry">
            <mxPoint x="860" y="710" as="sourcePoint" />
            <mxPoint x="910" y="660" as="targetPoint" />
            <Array as="points">
              <mxPoint x="1120" y="85" />
              <mxPoint x="1120" y="100" />
              <mxPoint x="1090" y="100" />
              <mxPoint x="1090" y="380" />
              <mxPoint x="1130" y="380" />
            </Array>
            <mxPoint as="offset" />
          </mxGeometry>
        </mxCell>
        <mxCell id="ID-2iCCUYJdp1bBLYtlo-31" value="BoxLambda SoC Gateware" style="rounded=1;whiteSpace=wrap;html=1;fontSize=18;fontStyle=1;verticalAlign=bottom;" parent="1" vertex="1">
          <mxGeometry x="480" y="990" width="680" height="200" as="geometry" />
        </mxCell>
        <mxCell id="ID-2iCCUYJdp1bBLYtlo-32" value="&lt;b&gt;&lt;font style=&quot;font-size: 18px;&quot;&gt;J1B&lt;/font&gt;&lt;/b&gt;" style="rounded=1;whiteSpace=wrap;html=1;fillStyle=auto;fillColor=#dae8fc;strokeColor=#6c8ebf;verticalAlign=bottom;" parent="1" vertex="1">
          <mxGeometry x="680" y="1030" width="160" height="100" as="geometry" />
        </mxCell>
        <mxCell id="ID-2iCCUYJdp1bBLYtlo-33" value="&lt;font style=&quot;font-size: 18px;&quot;&gt;Other BoxLambda Soc components&lt;/font&gt;" style="rounded=1;whiteSpace=wrap;html=1;fontStyle=1" parent="1" vertex="1">
          <mxGeometry x="860" y="1030" width="230" height="60" as="geometry" />
        </mxCell>
        <mxCell id="ID-2iCCUYJdp1bBLYtlo-34" value="&lt;font style=&quot;font-size: 18px;&quot;&gt;Other BoxLambda Soc components&lt;/font&gt;" style="rounded=1;whiteSpace=wrap;html=1;fontStyle=1" parent="1" vertex="1">
          <mxGeometry x="870" y="1040" width="230" height="60" as="geometry" />
        </mxCell>
        <mxCell id="ID-2iCCUYJdp1bBLYtlo-35" value="&lt;font style=&quot;font-size: 18px;&quot;&gt;Other BoxLambda Soc components&lt;/font&gt;" style="rounded=1;whiteSpace=wrap;html=1;fontStyle=1" parent="1" vertex="1">
          <mxGeometry x="880" y="1050" width="230" height="60" as="geometry" />
        </mxCell>
        <mxCell id="ID-2iCCUYJdp1bBLYtlo-36" value="" style="endArrow=none;html=1;rounded=0;entryX=0.012;entryY=0.944;entryDx=0;entryDy=0;entryPerimeter=0;exitX=0.083;exitY=0.117;exitDx=0;exitDy=0;exitPerimeter=0;dashed=1;" parent="1" source="ID-2iCCUYJdp1bBLYtlo-38" target="ID-2iCCUYJdp1bBLYtlo-39" edge="1">
          <mxGeometry width="50" height="50" relative="1" as="geometry">
            <mxPoint x="490" y="1310" as="sourcePoint" />
            <mxPoint x="540" y="1260" as="targetPoint" />
          </mxGeometry>
        </mxCell>
        <mxCell id="ID-2iCCUYJdp1bBLYtlo-37" value="" style="endArrow=none;html=1;rounded=0;entryX=0.953;entryY=0.99;entryDx=0;entryDy=0;entryPerimeter=0;exitX=0.25;exitY=0.2;exitDx=0;exitDy=0;exitPerimeter=0;dashed=1;" parent="1" source="ID-2iCCUYJdp1bBLYtlo-31" target="ID-2iCCUYJdp1bBLYtlo-39" edge="1">
          <mxGeometry width="50" height="50" relative="1" as="geometry">
            <mxPoint x="1010" y="1010" as="sourcePoint" />
            <mxPoint x="1060" y="960" as="targetPoint" />
          </mxGeometry>
        </mxCell>
        <mxCell id="ID-2iCCUYJdp1bBLYtlo-38" value="&lt;font style=&quot;font-size: 18px;&quot;&gt;&lt;b&gt;Ibex RiscV CPU&lt;/b&gt;&lt;/font&gt;" style="rounded=1;whiteSpace=wrap;html=1;" parent="1" vertex="1">
          <mxGeometry x="530" y="1030" width="120" height="60" as="geometry" />
        </mxCell>
        <mxCell id="ID-2iCCUYJdp1bBLYtlo-39" value="&lt;font style=&quot;font-size: 18px;&quot;&gt;&lt;b&gt;BoxLambda SoC Software&lt;/b&gt;&lt;/font&gt;" style="rounded=1;whiteSpace=wrap;html=1;verticalAlign=bottom;" parent="1" vertex="1">
          <mxGeometry x="480" y="640" width="680" height="310" as="geometry" />
        </mxCell>
        <mxCell id="ID-2iCCUYJdp1bBLYtlo-40" value="&lt;font style=&quot;font-size: 18px;&quot;&gt;&lt;b&gt;DFX Test Program&lt;/b&gt;&lt;/font&gt;" style="rounded=0;whiteSpace=wrap;html=1;verticalAlign=top;" parent="1" vertex="1">
          <mxGeometry x="580" y="660" width="210" height="250" as="geometry" />
        </mxCell>
        <mxCell id="ID-2iCCUYJdp1bBLYtlo-41" value="&lt;font style=&quot;font-size: 18px;&quot;&gt;&lt;b&gt;File System&lt;/b&gt;&lt;/font&gt;" style="rounded=0;whiteSpace=wrap;html=1;verticalAlign=bottom;" parent="1" vertex="1">
          <mxGeometry x="820" y="660" width="240" height="250" as="geometry" />
        </mxCell>
        <mxCell id="ID-2iCCUYJdp1bBLYtlo-42" value="J1B&lt;div style=&quot;font-size: 18px;&quot;&gt;Bitstream&lt;/div&gt;" style="rounded=1;whiteSpace=wrap;html=1;fillStyle=auto;fillColor=#dae8fc;strokeColor=#6c8ebf;fontSize=18;fontStyle=1" parent="1" vertex="1">
          <mxGeometry x="855" y="770" width="160" height="100" as="geometry" />
        </mxCell>
        <mxCell id="ID-2iCCUYJdp1bBLYtlo-43" value="SwapForth Firmware&lt;div&gt;Image&lt;/div&gt;" style="rounded=1;whiteSpace=wrap;html=1;fillColor=#d5e8d4;strokeColor=#82b366;fontSize=18;fontStyle=1" parent="1" vertex="1">
          <mxGeometry x="890" y="680" width="100" height="70" as="geometry" />
        </mxCell>
        <mxCell id="ID-2iCCUYJdp1bBLYtlo-45" value="SwapForth&lt;div&gt;Firmware&lt;/div&gt;" style="rounded=1;whiteSpace=wrap;html=1;fillColor=#d5e8d4;strokeColor=#82b366;fontSize=18;fontStyle=1" parent="1" vertex="1">
          <mxGeometry x="710" y="1035" width="100" height="70" as="geometry" />
        </mxCell>
        <mxCell id="ID-2iCCUYJdp1bBLYtlo-46" value="&lt;b style=&quot;font-size: 18px; background-color: initial;&quot;&gt;&amp;gt; _&lt;/b&gt;" style="text;html=1;align=left;verticalAlign=middle;whiteSpace=wrap;rounded=0;" parent="1" vertex="1">
          <mxGeometry x="595" y="770" width="190" height="30" as="geometry" />
        </mxCell>
        <mxCell id="ID-2iCCUYJdp1bBLYtlo-47" value="" style="endArrow=classic;html=1;rounded=0;entryX=0.5;entryY=0;entryDx=0;entryDy=0;exitX=0.111;exitY=1.1;exitDx=0;exitDy=0;exitPerimeter=0;strokeWidth=5;dashed=1;" parent="1" source="ID-2iCCUYJdp1bBLYtlo-46" target="ID-2iCCUYJdp1bBLYtlo-32" edge="1">
          <mxGeometry width="50" height="50" relative="1" as="geometry">
            <mxPoint x="600" y="1280" as="sourcePoint" />
            <mxPoint x="650" y="1230" as="targetPoint" />
          </mxGeometry>
        </mxCell>
        <mxCell id="ID-2iCCUYJdp1bBLYtlo-48" value="1. DFX Load Bitstream" style="text;html=1;align=left;verticalAlign=middle;whiteSpace=wrap;rounded=0;fontSize=18;fontStyle=1" parent="1" vertex="1">
          <mxGeometry x="120" y="-30" width="200" height="30" as="geometry" />
        </mxCell>
        <mxCell id="ID-2iCCUYJdp1bBLYtlo-49" value="2. Load SwapForth Firmware" style="text;html=1;align=left;verticalAlign=middle;whiteSpace=wrap;rounded=0;fontSize=18;fontStyle=1" parent="1" vertex="1">
          <mxGeometry x="840" y="-30" width="260" height="30" as="geometry" />
        </mxCell>
        <mxCell id="ID-2iCCUYJdp1bBLYtlo-50" value="3. Present the SwapForth REPL to the User" style="text;html=1;align=left;verticalAlign=middle;whiteSpace=wrap;rounded=0;fontSize=18;fontStyle=1" parent="1" vertex="1">
          <mxGeometry x="480" y="610" width="400" height="30" as="geometry" />
        </mxCell>
      </root>
    </mxGraphModel>
  </diagram>
</mxfile>
